All About Evil  (2010) 
98 min  -  Comedy | Horror  -    25 June 2014 (USA)
IMDB: www.imdb.com/title/tt1307858/


Video: MPEG4 Video (H264) 720x400 23.976fps [Stream 00]
Audio: MP3 48000Hz stereo 128kbps [Stream 01].

General
Complete name             :All About Evil  (2010).avi
Format                         : AVI
Format/Info                    : Audio Video Interleave
File size                      : 553 MiB
Duration                       : 1h 38mn
Overall bit rate               : 788 Kbps
Writing application            : Lavf51.12.1

Video
ID                             : 0
Format                         : AVC
Format/Info                    : Advanced Video Codec
Format profile                 : High@L3.1
Format settings, CABAC         : No
Format settings, ReFrames      : 8 frames
Format settings, GOP           : M=1, N=12
Codec ID                       : H264
Duration                       : 1h 38mn
Bit rate                       : 647 Kbps
Width                          : 720 pixels
Height                         : 400 pixels
Display aspect ratio           : 16:9
Frame rate mode                : Variable
Frame rate                     : 23.976 fps
Color space                    : YUV
Chroma subsampling             : 4:2:0
Bit depth                      : 8 bits
Scan type                      : Progressive
Bits/(Pixel*Frame)             : 0.094
Stream size                    : 454 MiB (82%)

Audio
ID                             : 1
Format                         : MPEG Audio
Format version                 : Version 1
Format profile                 : Layer 3
Mode                           : Joint stereo
Mode extension                 : MS Stereo
Codec ID                       : 55
Codec ID/Hint                  : MP3
Duration                       : 1h 38mn
Bit rate mode                  : Constant
Bit rate                       : 128 Kbps
Channel(s)                     : 2 channels
Sampling rate                  : 48.0 KHz
Compression mode               : Lossy
Stream size                    : 89.9 MiB (16%)
Alignment                      : Aligned on interleaves
Interleave, duration           : 24 ms (0.58 video frame)
Interleave, preload duration   : 24 ms
Writing library                : LAME3.97

